# Blender v2.79 (sub 0) OBJ File: 'bounding_boxes.blend'
# www.blender.org
o Box.003_Cube.008
v -1.000000 0.000000 1.000000
v -1.000000 4.000000 1.000000
v -1.000000 0.500000 -1.000000
v -1.000000 4.000000 -1.000000
v 1.000000 0.500000 1.000000
v 1.000000 4.000000 1.000000
v 1.000000 0.000000 -1.000000
v 1.000000 4.000000 -1.000000
vn -1.0000 0.0000 0.0000
vn 0.0000 0.0000 -1.0000
vn 1.0000 0.0000 0.0000
vn 0.0000 0.0000 1.0000
vn -0.2357 -0.9428 -0.2357
vn 0.0000 1.0000 0.0000
vn 0.2357 -0.9428 0.2357
usemtl None
s off
f 2//1 3//1 1//1
f 3//2 8//2 7//2
f 8//3 5//3 7//3
f 5//4 2//4 1//4
f 7//5 1//5 3//5
f 4//6 6//6 8//6
f 7//7 5//7 1//7
f 2//1 4//1 3//1
f 3//2 4//2 8//2
f 8//3 6//3 5//3
f 5//4 6//4 2//4
f 4//6 2//6 6//6
